<svg viewBox="0 0 32 32" xml:space="preserve" xmlns="http://www.w3.org/2000/svg" fill-rule="evenodd" clip-rule="evenodd" stroke-linejoin="round" stroke-miterlimit="2"><path d="m14.893 23.314.909-.303a.5.5 0 0 1 .548.162c.303.378.646.722 1.023 1.026a.498.498 0 0 1 .172.509 7.31 7.31 0 0 1-.084.308l-.164.495-.006.016a7.64 7.64 0 0 1-7.156 4.973A7.638 7.638 0 0 1 2.5 22.865c0-6.605 6.474-19.717 7.191-21.096a.501.501 0 0 1 .939.299c-.048.351.186 1.023.543 1.936.936 2.392 2.825 6.199 4.337 10.022a.499.499 0 0 1-.617.66 7.782 7.782 0 0 0-.403.697l.717.637a.5.5 0 0 1 .134.555 6.74 6.74 0 0 0-.38 1.415.5.5 0 0 1-.393.415l-.939.192a7.739 7.739 0 0 0 0 .806l.939.192a.5.5 0 0 1 .393.415c.075.484.202.958.38 1.415a.5.5 0 0 1-.134.555l-.717.637c.122.239.257.471.403.697ZM9.936 3.521C8.133 7.226 3.5 17.354 3.5 22.865a6.638 6.638 0 0 0 6.635 6.635 6.641 6.641 0 0 0 6.217-4.315l.14-.421a7.63 7.63 0 0 1-.696-.697l-.946.315a.5.5 0 0 1-.565-.184 8.917 8.917 0 0 1-.865-1.497.501.501 0 0 1 .123-.581l.746-.662a7.797 7.797 0 0 1-.255-.951l-.977-.201a.502.502 0 0 1-.397-.441 9.09 9.09 0 0 1 0-1.73.502.502 0 0 1 .397-.441l.977-.201c.065-.322.15-.639.255-.951l-.746-.662a.501.501 0 0 1-.123-.581 8.917 8.917 0 0 1 .865-1.497.617.617 0 0 1 .038-.048c-1.463-3.605-3.198-7.126-4.081-9.386a15.244 15.244 0 0 1-.306-.847Z" fill="#65d4f0" class="fill-32b2ff"></path><path d="m20.053 11.475.2-.977a.5.5 0 0 1 .442-.397 8.918 8.918 0 0 1 1.729 0 .5.5 0 0 1 .441.397l.201.977c.322.064.64.149.951.255l.662-.746a.5.5 0 0 1 .581-.123 8.966 8.966 0 0 1 1.498.865.5.5 0 0 1 .183.564l-.314.946c.246.217.479.45.696.697l.946-.315a.5.5 0 0 1 .565.184c.335.47.625.971.864 1.497a.5.5 0 0 1-.123.581l-.745.662c.105.311.19.629.254.951l.977.201a.5.5 0 0 1 .397.441 8.928 8.928 0 0 1 0 1.73.5.5 0 0 1-.397.441l-.977.201a7.663 7.663 0 0 1-.254.951l.745.662a.5.5 0 0 1 .123.581 8.981 8.981 0 0 1-.864 1.497.5.5 0 0 1-.565.184l-.946-.315a7.63 7.63 0 0 1-.696.697l.314.946a.5.5 0 0 1-.183.564 8.966 8.966 0 0 1-1.498.865.5.5 0 0 1-.581-.123l-.662-.746a7.451 7.451 0 0 1-.951.255l-.201.977a.5.5 0 0 1-.441.397 8.918 8.918 0 0 1-1.729 0 .5.5 0 0 1-.442-.397l-.2-.977a7.407 7.407 0 0 1-.951-.255l-.662.746a.5.5 0 0 1-.581.123 8.926 8.926 0 0 1-1.498-.865.5.5 0 0 1-.184-.564l.315-.946a7.63 7.63 0 0 1-.696-.697l-.946.315a.5.5 0 0 1-.565-.184 8.917 8.917 0 0 1-.865-1.497.501.501 0 0 1 .123-.581l.746-.662a7.797 7.797 0 0 1-.255-.951l-.977-.201a.502.502 0 0 1-.397-.441 9.09 9.09 0 0 1 0-1.73.502.502 0 0 1 .397-.441l.977-.201c.065-.322.15-.639.255-.951l-.746-.662a.501.501 0 0 1-.123-.581 8.917 8.917 0 0 1 .865-1.497.5.5 0 0 1 .565-.184l.946.315c.216-.247.449-.48.696-.697l-.315-.946a.5.5 0 0 1 .184-.564c.47-.336.972-.626 1.498-.865a.5.5 0 0 1 .581.123l.662.746c.311-.106.628-.191.951-.255Zm1.909-.405a7.72 7.72 0 0 0-.805 0l-.193.939a.5.5 0 0 1-.414.393 6.661 6.661 0 0 0-1.415.379.5.5 0 0 1-.556-.134l-.636-.716a7.931 7.931 0 0 0-.698.402l.303.91a.5.5 0 0 1-.162.548c-.382.306-.73.654-1.036 1.036a.5.5 0 0 1-.548.162l-.909-.303a7.924 7.924 0 0 0-.403.697l.717.637a.5.5 0 0 1 .134.555 6.74 6.74 0 0 0-.38 1.415.5.5 0 0 1-.393.415l-.939.192a7.739 7.739 0 0 0 0 .806l.939.192a.5.5 0 0 1 .393.415c.075.484.202.958.38 1.415a.5.5 0 0 1-.134.555l-.717.637c.122.239.257.471.403.697l.909-.303a.5.5 0 0 1 .548.162c.306.382.654.73 1.036 1.036a.5.5 0 0 1 .162.548l-.303.91c.226.146.459.28.698.402l.636-.716a.5.5 0 0 1 .556-.134c.456.178.931.305 1.415.379a.5.5 0 0 1 .414.393l.193.939c.268.014.537.014.805 0l.193-.939a.5.5 0 0 1 .414-.393 6.661 6.661 0 0 0 1.415-.379.498.498 0 0 1 .555.134l.637.716c.239-.122.472-.256.697-.402l-.302-.91a.5.5 0 0 1 .162-.548 6.671 6.671 0 0 0 1.035-1.036.5.5 0 0 1 .548-.162l.91.303c.146-.226.28-.458.403-.697l-.717-.637a.499.499 0 0 1-.134-.555c.178-.457.305-.931.379-1.415a.503.503 0 0 1 .394-.415l.939-.192a8.334 8.334 0 0 0 0-.806l-.939-.192a.503.503 0 0 1-.394-.415 6.677 6.677 0 0 0-.379-1.415.499.499 0 0 1 .134-.555l.717-.637a8.184 8.184 0 0 0-.403-.697l-.91.303a.5.5 0 0 1-.548-.162 6.671 6.671 0 0 0-1.035-1.036.5.5 0 0 1-.162-.548l.302-.91a7.772 7.772 0 0 0-.697-.402l-.637.716a.498.498 0 0 1-.555.134 6.661 6.661 0 0 0-1.415-.379.5.5 0 0 1-.414-.393l-.193-.939Zm-.403 4.344A3.588 3.588 0 0 0 17.973 19a3.588 3.588 0 0 0 3.586 3.586A3.588 3.588 0 0 0 25.145 19a3.588 3.588 0 0 0-3.586-3.586Zm0 1A2.588 2.588 0 0 1 24.145 19a2.588 2.588 0 0 1-2.586 2.586A2.588 2.588 0 0 1 18.973 19a2.588 2.588 0 0 1 2.586-2.586ZM5.529 19.664S3.346 25.867 8.86 27.48a.5.5 0 0 0 .28-.96c-4.571-1.337-2.669-6.518-2.669-6.518a.501.501 0 0 0-.942-.338Z" fill="#65d4f0" class="fill-32b2ff"></path></svg>