<svg viewBox="0 0 128 128" xml:space="preserve" xmlns="http://www.w3.org/2000/svg" enable-background="new 0 0 128 128"><path d="M124.708 105.094c.245-.263.468-.543.648-.855.713-1.238 1.212-3.404-.458-6.686l-20.895-41.789V12.858c1.721-.447 3-2 3-3.858 0-2.206-1.794-4-4-4h-16c-2.206 0-4 1.794-4 4 0 1.858 1.279 3.411 3 3.858v13.123c.001.006-.003.012-.003.019s.004.013.004.019v5.961c0 .007-.004.013-.004.02s.004.013.004.019v5.961c0 .007-.004.013-.004.02s.004.013.004.019v5.961c0 .007-.004.013-.004.02s.004.013.004.019v5.961c0 .007-.004.013-.004.02s.004.013.004.019v5.745L65.09 97.595c-1.677 3.783-1.095 5.992-.312 7.178.049.075.112.151.17.228h-6.626c2.825-1.988 4.68-5.268 4.68-8.978V43.001c0-2.206-1.799-4-4.01-4H5.998c-2.446.018-3.395.951-3.759 1.73-.514 1.099-.158 2.489 1.001 3.918l7.762 11.655v39.697c0 3.719 1.86 7.007 4.694 8.999H4c-1.654 0-3 1.346-3 3v12.01c0 1.654 1.346 3 3 3h120c1.654 0 3-1.346 3-3V108c0-1.409-.98-2.586-2.292-2.906zm-17.582-38.613a6.26 6.26 0 0 0-1.086.762c-.543.456-.902.757-1.707.757-.798 0-1.15-.302-1.685-.759-.645-.553-1.448-1.241-2.986-1.241-1.537 0-2.34.688-2.984 1.241-.534.457-.886.759-1.683.759-.796 0-1.148-.302-1.681-.759C92.67 66.688 91.867 66 90.331 66c-1.535 0-2.338.688-2.982 1.241-.533.457-.885.759-1.681.759-.803 0-1.161-.301-1.703-.756a6.24 6.24 0 0 0-1.084-.762L87.622 57H92a1 1 0 1 0 0-2h-3.996v-4H92a1 1 0 1 0 0-2h-3.996v-4H92a1 1 0 1 0 0-2h-3.996v-4H92a1 1 0 1 0 0-2h-3.996v-4H92a1 1 0 1 0 0-2h-3.996v-4H92a1 1 0 1 0 0-2h-3.996V13h14v43c0 .155.036.309.105.447l5.017 10.034zM85.004 9c0-1.103.897-2 2-2h16c1.103 0 2 .897 2 2s-.897 2-2 2h-16c-1.103 0-2-.897-2-2zm-18.557 94.67c-.729-1.104-.566-2.925.451-5.223l15.09-30.18c.231.13.443.301.69.508.65.546 1.459 1.225 2.99 1.225 1.536 0 2.339-.688 2.983-1.241.533-.457.885-.759 1.68-.759.796 0 1.148.302 1.681.759.644.553 1.447 1.241 2.983 1.241s2.339-.688 2.983-1.241c.535-.457.887-.759 1.684-.759.799 0 1.151.302 1.686.76.646.553 1.448 1.24 2.985 1.24 1.533 0 2.342-.679 2.992-1.225.248-.208.461-.379.694-.509l15.094 30.188c.989 1.942 1.17 3.643.511 4.787-.596 1.035-1.896 1.659-3.658 1.759H69.99c-1.192.012-2.798-.202-3.543-1.33zM4.878 43.5a.941.941 0 0 0-.06-.081c-.717-.873-.902-1.553-.768-1.84.122-.261.709-.569 1.955-.579h52.986c1.108 0 2.01.897 2.01 2v34.93c-.889-.135-1.454-.451-2.082-.803-.945-.528-2.016-1.127-4.063-1.127s-3.118.599-4.062 1.127c-.837.468-1.56.873-3.086.873-1.525 0-2.247-.404-3.084-.873-.943-.528-2.013-1.127-4.06-1.127-2.046 0-3.115.599-4.059 1.128-.835.468-1.556.872-3.079.872-1.524 0-2.247-.404-3.083-.873C29.4 76.599 28.33 76 26.284 76s-3.115.599-4.06 1.128c-.835.468-1.557.872-3.08.872-1.524 0-2.246-.404-3.082-.873-.775-.434-1.644-.911-3.062-1.069V56.001c0-.197-.059-.39-.168-.554L4.878 43.5zm8.124 52.501v-17.93c.89.135 1.456.45 2.084.802.944.529 2.014 1.128 4.06 1.128s3.114-.599 4.058-1.127c.836-.468 1.558-.873 3.082-.873s2.246.404 3.082.873c.943.528 2.013 1.127 4.06 1.127 2.045 0 3.114-.599 4.058-1.127.835-.468 1.557-.873 3.08-.873 1.524 0 2.247.404 3.083.873.943.528 2.014 1.127 4.061 1.127 2.048 0 3.118-.599 4.062-1.127.837-.468 1.56-.873 3.086-.873s2.25.404 3.087.873c.774.434 1.644.909 3.059 1.068v16.081c0 4.945-4.017 8.967-8.959 8.978h-30.06c-4.956-.012-8.983-4.044-8.983-9zM125 120.01c0 .551-.448 1-1 1H4c-.552 0-1-.449-1-1V108c0-.551.448-1 1-1h17.983l.019.001.005-.001h30.012l.005.001.019-.001h17.806l.019.001.149-.001H124c.552 0 1 .449 1 1v12.01z" fill="#65d4f0" class="fill-000000"></path><path d="M18 48h5a1 1 0 1 0 0-2h-5a1 1 0 1 0 0 2zM18 54h5a1 1 0 1 0 0-2h-5a1 1 0 1 0 0 2zM18 60h5a1 1 0 1 0 0-2h-5a1 1 0 1 0 0 2zM18 66h5a1 1 0 1 0 0-2h-5a1 1 0 1 0 0 2zM18 72h5a1 1 0 1 0 0-2h-5a1 1 0 1 0 0 2zM45.009 90.001c0-2.206-1.794-4-4-4s-4 1.794-4 4 1.794 4 4 4 4-1.794 4-4zm-4 2c-1.103 0-2-.897-2-2s.897-2 2-2 2 .897 2 2-.898 2-2 2zM46.005 96.001c-1.657 0-3.005 1.344-3.005 2.995s1.348 2.995 3.005 2.995c1.656 0 3.004-1.344 3.004-2.995s-1.348-2.995-3.004-2.995zm0 3.991c-.554 0-1.005-.446-1.005-.995s.451-.995 1.005-.995 1.004.446 1.004.995-.45.995-1.004.995zM27.009 94.02c-1.654 0-3 1.342-3 2.991s1.346 2.991 3 2.991 3-1.342 3-2.991a3 3 0 0 0-3-2.991zm0 3.981c-.552 0-1-.444-1-.991s.448-.991 1-.991 1 .444 1 .991-.448.991-1 .991zM54.009 94.001c1.654 0 3-1.346 3-3s-1.346-3-3-3-3 1.346-3 3 1.345 3 3 3zm0-4a1.001 1.001 0 1 1-1 1c0-.551.448-1 1-1zM20.009 83.029c-2.206 0-4 1.788-4 3.986 0 2.198 1.794 3.986 4 3.986s4-1.788 4-3.986c0-2.198-1.794-3.986-4-3.986zm0 5.972c-1.103 0-2-.891-2-1.986s.897-1.986 2-1.986 2 .891 2 1.986-.898 1.986-2 1.986zM103.009 81.001c2.206 0 4-1.794 4-4s-1.794-4-4-4-4 1.794-4 4 1.794 4 4 4zm0-6c1.103 0 2 .897 2 2s-.897 2-2 2-2-.897-2-2 .897-2 2-2zM93.009 93.001c-2.206 0-4 1.794-4 4s1.794 4 4 4 4-1.794 4-4-1.794-4-4-4zm0 6c-1.103 0-2-.897-2-2s.897-2 2-2 2 .897 2 2-.898 2-2 2zM87.005 78.992A3 3 0 0 0 90 75.996 3 3 0 0 0 87.005 73a3 3 0 0 0-2.996 2.996 3 3 0 0 0 2.996 2.996zm0-3.991a.997.997 0 0 1 0 1.992c-.549 0-.996-.447-.996-.996s.447-.996.996-.996zM85.005 91.983c1.651 0 2.995-1.34 2.995-2.986s-1.344-2.986-2.995-2.986c-1.652 0-2.996 1.34-2.996 2.986s1.344 2.986 2.996 2.986zm0-3.973c.549 0 .995.442.995.986s-.446.986-.995.986-.996-.442-.996-.986.447-.986.996-.986zM104.032 86c-1.667 0-3.023 1.352-3.023 3.014s1.356 3.015 3.023 3.015c1.668 0 3.024-1.353 3.024-3.015S105.7 86 104.032 86zm0 4.029a1.02 1.02 0 0 1-1.023-1.015c0-.559.459-1.014 1.023-1.014s1.024.455 1.024 1.014a1.02 1.02 0 0 1-1.024 1.015zM75.004 100c1.654 0 3-1.346 3-3s-1.346-3-3-3-3 1.346-3 3 1.346 3 3 3zm0-4a1.001 1.001 0 1 1-1 1c0-.551.448-1 1-1zM93.009 86.001c1.654 0 3-1.346 3-3s-1.346-3-3-3-3.001 1.346-3.001 3 1.346 3 3.001 3zm0-4.001c.552 0 1 .449 1 1s-.448 1-1 1-1.001-.449-1.001-1 .449-1 1.001-1zM113.009 101.001c2.206 0 4-1.788 4-3.986 0-2.198-1.794-3.986-4-3.986s-4 1.788-4 3.986c0 2.198 1.794 3.986 4 3.986zm0-5.972c1.103 0 2 .891 2 1.986s-.897 1.986-2 1.986-2-.891-2-1.986.897-1.986 2-1.986z" fill="#65d4f0" class="fill-000000"></path></svg>