<?xml version="1.0" ?><svg viewBox="0 0 64 64" xmlns="http://www.w3.org/2000/svg"><defs><style>.cls-1{fill:#e0e9ee;}.cls-2{fill:#d0e1e8;}.cls-3{fill:#f0f4f7;}.cls-4{fill:#94d8e5;}.cls-5{fill:#7bd1e0;}.cls-6{fill:#748a95;}.cls-7{fill:#617880;}</style></defs><g id="Canal"><path class="cls-1" d="M11.16,25V43.81l6.24,3.27,3.26-3.84V42.18a11.35,11.35,0,0,1,9.07-11.12l4.78-4.56,4,6.39a11.3,11.3,0,0,1,4.84,9.29v1.06L47,47.56l5.86-3.75V25s-12-1.95-17.82-3.28C27.05,22.79,11.16,25,11.16,25Z" id="path97827-6"/><path class="cls-2" d="M52.84,45.81V23H49.5V45.81ZM20.66,43.24V42.18a11.35,11.35,0,0,1,9.07-11.12l2.69-2.56-1.25-2-3,2.32c-5.12.28-10.88,7.87-10.88,13.36v1.06l1.95,3Z" id="path245561"/><path class="cls-3" d="M38.5,25V37a1.72,1.72,0,0,1-3.43,0V31.34a1.34,1.34,0,1,0-2.67,0,1.34,1.34,0,0,1-2.67,0V25Z" id="path76528-7-7-0"/><path class="cls-4" d="M56,48.55V44.06c0-1.19-.26-1-1.29-.58a4.47,4.47,0,0,1-3.42,0,2.58,2.58,0,0,0-2.58,0,4.47,4.47,0,0,1-3.42,0,2.58,2.58,0,0,0-2.58,0,4.47,4.47,0,0,1-3.42,0,2.58,2.58,0,0,0-2.58,0,4.47,4.47,0,0,1-3.42,0,2.58,2.58,0,0,0-2.58,0,4.47,4.47,0,0,1-3.42,0,2.58,2.58,0,0,0-2.58,0,4.47,4.47,0,0,1-3.42,0,2.58,2.58,0,0,0-2.58,0,4.47,4.47,0,0,1-3.42,0A3.1,3.1,0,0,0,14,43.14a3.1,3.1,0,0,0-1.29.34,4.47,4.47,0,0,1-3.42,0C8.26,43,8,42.87,8,44.06v4.49l24.33,5.24Z" id="rect90151-6"/><path class="cls-5" d="M14,47.63a3.1,3.1,0,0,0-1.29.34,4.47,4.47,0,0,1-3.42,0c-1-.46-1.29-.62-1.29.58V56H56V48.55c0-1.2-.26-1-1.29-.58a4.47,4.47,0,0,1-3.42,0,2.58,2.58,0,0,0-2.58,0,4.47,4.47,0,0,1-3.42,0,2.58,2.58,0,0,0-2.58,0,4.47,4.47,0,0,1-3.42,0,2.58,2.58,0,0,0-2.58,0,4.47,4.47,0,0,1-3.42,0,2.58,2.58,0,0,0-2.58,0,4.47,4.47,0,0,1-3.42,0,2.58,2.58,0,0,0-2.58,0,4.47,4.47,0,0,1-3.42,0,2.58,2.58,0,0,0-2.58,0,4.47,4.47,0,0,1-3.42,0A3.1,3.1,0,0,0,14,47.63Z" id="path91003-1"/><path class="cls-6" d="M49.46,25h4.25a2.29,2.29,0,0,0,0-4.58H49.46L47.78,22,46.1,20.44H23.77l-4.63,2.41L15,20.44H10.29a2.29,2.29,0,1,0,0,4.58H49.46Z" id="path97836-0"/><path class="cls-3" d="M15,20.44v12a1.72,1.72,0,1,0,3.44,0V26.76a1.34,1.34,0,0,1,2.67,0,1.33,1.33,0,1,0,2.66,0V20.44Z" id="path97713-6"/><path class="cls-7" d="M49.46,20.44l-.06,0A2.29,2.29,0,0,1,49,25h4.76a2.29,2.29,0,0,0,0-4.58Z" id="path250280"/><path class="cls-3" d="M46.1,20.44v7.2a1.68,1.68,0,0,0,3.36,0v-7.2Z" id="rect98368-1"/><path d="M22.93,14.16,22.62,14a1,1,0,0,0-1,1.73l.31.18a1,1,0,0,0,1.37-.37A1,1,0,0,0,22.93,14.16Z"/><path d="M17.38,13.26a1,1,0,0,0,.51.14,1,1,0,0,0,.5-1.86l-.3-.18a1,1,0,1,0-1,1.73Z"/><path d="M16.72,15.52a1,1,0,0,0,1.36.37l.31-.18a1,1,0,0,0-1-1.73l-.31.18A1,1,0,0,0,16.72,15.52Z"/><path d="M23.3,11.72a1,1,0,0,0-1.37-.36l-.31.17a1,1,0,0,0,.5,1.87.9.9,0,0,0,.5-.14l.31-.17A1,1,0,0,0,23.3,11.72Z"/><path d="M20,15.07a1,1,0,0,0-1,1v.35a1,1,0,0,0,2,0v-.35A1,1,0,0,0,20,15.07Z"/><path d="M21,10.82a1,1,0,0,0-2,0v.36a1,1,0,0,0,2,0Z"/><path d="M52.76,11.33l-.31-.17a1,1,0,0,0-1.36.36,1,1,0,0,0,.37,1.37l.3.17a.93.93,0,0,0,.5.14,1,1,0,0,0,.5-1.87Z"/><path d="M47.22,10.44a1,1,0,0,0,.5.14,1,1,0,0,0,.5-1.87l-.31-.18a1,1,0,0,0-1.36.37,1,1,0,0,0,.36,1.36Z"/><path d="M46.55,12.7a1,1,0,0,0,.86.5.9.9,0,0,0,.5-.14l.31-.17a1,1,0,0,0,.37-1.37,1,1,0,0,0-1.37-.36l-.31.17A1,1,0,0,0,46.55,12.7Z"/><path d="M53.13,8.9a1,1,0,0,0-1.37-.37l-.3.18a1,1,0,0,0,.5,1.87,1,1,0,0,0,.49-.14l.31-.17A1,1,0,0,0,53.13,8.9Z"/><path d="M49.84,12.25a1,1,0,0,0-1,1v.35a1,1,0,1,0,2,0v-.35A1,1,0,0,0,49.84,12.25Z"/><path d="M50.84,8a1,1,0,0,0-2,0v.35a1,1,0,1,0,2,0Z"/><circle cx="30.75" cy="11.72" r="1.25"/><path d="M56.35,42.34c-.63-.4-1.27-.12-2,.18a2,2,0,0,1-.56.19V26a3.28,3.28,0,0,0-.13-6.56H10.29A3.29,3.29,0,0,0,8,25.06a3.26,3.26,0,0,0,2.2,1v16.7a3.09,3.09,0,0,1-.46-.14l-.1,0c-.68-.3-1.32-.59-1.95-.18A1.89,1.89,0,0,0,7,44.06V56a1,1,0,0,0,1,1H56a1,1,0,0,0,1-1V44.06A1.89,1.89,0,0,0,56.35,42.34Zm-8.05.23a3.54,3.54,0,0,1-2.6,0,4.51,4.51,0,0,0-1.36-.39h0A12.37,12.37,0,0,0,39.5,32.4V26h5.6v1.62a2.68,2.68,0,0,0,5.36,0V26h1.38V42.61A3.72,3.72,0,0,0,48.3,42.57Zm.16-14.93a.68.68,0,0,1-1.36,0V21.45h1.36ZM45.1,24H24.77V21.45H45.1ZM30.73,26H37.5V37a.72.72,0,0,1-1.43,0V31.34a2.34,2.34,0,1,0-4.67,0,.34.34,0,0,1-.67,0Zm-8,.74a.33.33,0,0,1-.33.33.32.32,0,0,1-.33-.33,2.34,2.34,0,0,0-4.67,0v5.67a.72.72,0,0,1-1.44,0V25h0V21.45h6.77Zm-6.05,8.39a2.72,2.72,0,0,0,2.72-2.72V26.76a.33.33,0,0,1,.33-.33.33.33,0,0,1,.34.33,2.33,2.33,0,1,0,4.66,0V26h4v4.26a12.38,12.38,0,0,0-9.07,11.9h0a4.51,4.51,0,0,0-1.36.39,3.54,3.54,0,0,1-2.6,0,3.59,3.59,0,0,0-3.4,0l-.14,0V26H14v6.41A2.72,2.72,0,0,0,16.72,35.15Zm4.94,7A10.37,10.37,0,0,1,29,32.3a2.33,2.33,0,0,0,4.45-1,.34.34,0,1,1,.67,0V37a2.72,2.72,0,0,0,5.43,0V35.09a10.3,10.3,0,0,1,2.84,7.09v.37a3.5,3.5,0,0,1-2.64,0,3.59,3.59,0,0,0-3.4,0,3.54,3.54,0,0,1-2.6,0,3.59,3.59,0,0,0-3.4,0,3.54,3.54,0,0,1-2.6,0,3.59,3.59,0,0,0-3.4,0,3.54,3.54,0,0,1-2.6,0l0,0ZM55,22.73A1.29,1.29,0,0,1,53.71,24H50.46V21.45h3.25A1.28,1.28,0,0,1,55,22.73Zm-46,0a1.28,1.28,0,0,1,1.29-1.28H14V24H10.29A1.3,1.3,0,0,1,9,22.73Zm4.11,21.66a1.66,1.66,0,0,1,1.77,0,5.54,5.54,0,0,0,4.23,0,1.66,1.66,0,0,1,1.77,0,5.54,5.54,0,0,0,4.23,0,1.66,1.66,0,0,1,1.77,0,5.54,5.54,0,0,0,4.23,0,1.66,1.66,0,0,1,1.77,0,5.54,5.54,0,0,0,4.23,0,1.66,1.66,0,0,1,1.77,0,5.54,5.54,0,0,0,4.23,0,1.66,1.66,0,0,1,1.77,0,5.54,5.54,0,0,0,4.23,0,1.66,1.66,0,0,1,1.77,0,5.65,5.65,0,0,0,4.12,0v2.32a4,4,0,0,1-3.3.29,3.59,3.59,0,0,0-3.4,0,3.44,3.44,0,0,1-2.6,0,3.59,3.59,0,0,0-3.4,0,3.44,3.44,0,0,1-2.6,0,3.59,3.59,0,0,0-3.4,0,3.44,3.44,0,0,1-2.6,0,3.59,3.59,0,0,0-3.4,0,3.44,3.44,0,0,1-2.6,0,3.59,3.59,0,0,0-3.4,0,3.44,3.44,0,0,1-2.6,0,3.59,3.59,0,0,0-3.4,0,3.44,3.44,0,0,1-2.6,0,3.59,3.59,0,0,0-3.4,0A4,4,0,0,1,9,46.76V44.44A5.56,5.56,0,0,0,13.11,44.39ZM9,55V48.92a5.56,5.56,0,0,0,4.11,0,1.66,1.66,0,0,1,1.77,0,5.54,5.54,0,0,0,4.23,0,1.66,1.66,0,0,1,1.77,0,5.54,5.54,0,0,0,4.23,0,1.66,1.66,0,0,1,1.77,0,5.54,5.54,0,0,0,4.23,0,1.66,1.66,0,0,1,1.77,0,5.54,5.54,0,0,0,4.23,0,1.66,1.66,0,0,1,1.77,0,5.54,5.54,0,0,0,4.23,0,1.66,1.66,0,0,1,1.77,0,5.54,5.54,0,0,0,4.23,0,1.66,1.66,0,0,1,1.77,0,5.59,5.59,0,0,0,4.12,0V55Z"/><circle cx="40.47" cy="16.49" r="1.25"/><circle cx="28.48" cy="38.72" r="1.25"/></g></svg>