<?xml version="1.0" ?><svg height="64" viewBox="0 0 64 64" width="64" xmlns="http://www.w3.org/2000/svg"><defs><style>.cls-1{fill:#f25c00;}</style></defs><title/><g data-name="Слой 3" id="Слой_3"><path class="cls-1" d="M64,29a1,1,0,0,1-1,1H39a1,1,0,0,1,0-2H63A1,1,0,0,1,64,29Zm-1-5c-.454,0-.65-.195-1.089-.674a3.145,3.145,0,0,0-5.131,0c-.438.479-.635.674-1.089.674s-.648-.194-1.085-.674a3.141,3.141,0,0,0-5.127,0c-.437.479-.632.674-1.084.674s-.647-.194-1.084-.674a3.14,3.14,0,0,0-5.126,0c-.437.479-.632.674-1.085.674-.4,0-.592-.139-.978-.557A1,1,0,0,0,38.654,24.8,3.169,3.169,0,0,0,41.1,26a3.26,3.26,0,0,0,2.563-1.326C44.1,24.194,44.3,24,44.748,24s.648.194,1.085.674a3.139,3.139,0,0,0,5.125,0c.437-.479.632-.674,1.085-.674s.648.194,1.085.674a3.143,3.143,0,0,0,5.129,0c.438-.479.635-.674,1.089-.674s.65.195,1.089.674A3.262,3.262,0,0,0,63,26a1,1,0,0,0,0-2Zm0-5c-.454,0-.65-.195-1.089-.674a3.145,3.145,0,0,0-5.131,0c-.438.479-.635.674-1.089.674s-.648-.194-1.085-.674a3.141,3.141,0,0,0-5.127,0c-.437.479-.632.674-1.084.674s-.647-.194-1.084-.674a3.14,3.14,0,0,0-5.126,0c-.437.479-.632.674-1.085.674-.4,0-.592-.139-.978-.557A1,1,0,0,0,38.654,19.8,3.169,3.169,0,0,0,41.1,21a3.26,3.26,0,0,0,2.563-1.326C44.1,19.194,44.3,19,44.748,19s.648.194,1.085.674a3.139,3.139,0,0,0,5.125,0c.437-.479.632-.674,1.085-.674s.648.194,1.085.674a3.143,3.143,0,0,0,5.129,0c.438-.479.635-.674,1.089-.674s.65.195,1.089.674A3.262,3.262,0,0,0,63,21a1,1,0,0,0,0-2ZM41.1,16a3.26,3.26,0,0,0,2.563-1.326C44.1,14.194,44.3,14,44.748,14s.648.194,1.085.674a3.139,3.139,0,0,0,5.125,0c.437-.479.632-.674,1.085-.674s.648.194,1.085.674a3.143,3.143,0,0,0,5.129,0c.438-.479.635-.674,1.089-.674s.65.195,1.089.674A3.262,3.262,0,0,0,63,16a1,1,0,0,0,0-2c-.454,0-.65-.195-1.089-.674a3.145,3.145,0,0,0-5.131,0c-.438.479-.635.674-1.089.674s-.648-.194-1.085-.674a3.141,3.141,0,0,0-5.127,0c-.437.479-.632.674-1.084.674s-.647-.194-1.084-.674a3.14,3.14,0,0,0-5.126,0c-.437.479-.632.674-1.085.674-.4,0-.592-.139-.978-.557A1,1,0,0,0,38.654,14.8,3.169,3.169,0,0,0,41.1,16ZM51.906,52.423a1,1,0,0,1-1.329.483l-10.714-5a1,1,0,1,1,.846-1.812l5.608,2.617L36.28,35.068a.972.972,0,0,1-.28.057,1,1,0,0,1-1-1V2H29V44h5.42l-2.4-10.783a1,1,0,0,1,1.953-.434L36.5,44.156c.016.01.031.021.046.031a.974.974,0,0,1,.149.1,1,1,0,0,1,.192.277c.008.016.022.025.029.041v0l0,0,3,6.993A1,1,0,0,1,39,53H37a1,1,0,0,1-.759-.349L33.969,50H29a1,1,0,0,1-.97-1.243L28.72,46h-.5l-14.8,6.906a1,1,0,0,1-.846-1.812l1.324-.618L27,32.671V30H1a1,1,0,0,1,0-2H27V25.958a3.159,3.159,0,0,1-.486.042,3.26,3.26,0,0,1-2.562-1.326c-.437-.479-.632-.674-1.085-.674s-.646.194-1.082.673a3.136,3.136,0,0,1-5.123,0c-.437-.479-.632-.673-1.083-.673s-.646.194-1.082.673A3.252,3.252,0,0,1,11.937,26a3.257,3.257,0,0,1-2.562-1.326C8.938,24.194,8.743,24,8.291,24s-.646.194-1.083.673A3.255,3.255,0,0,1,4.646,26a3.258,3.258,0,0,1-2.562-1.326C1.647,24.194,1.452,24,1,24a1,1,0,0,1,0-2,3.258,3.258,0,0,1,2.562,1.326C4,23.806,4.194,24,4.646,24s.646-.194,1.083-.673A3.255,3.255,0,0,1,8.291,22a3.257,3.257,0,0,1,2.563,1.327c.437.479.632.673,1.083.673s.645-.194,1.081-.673a3.135,3.135,0,0,1,5.122,0c.437.479.632.674,1.084.674s.646-.194,1.082-.673a3.138,3.138,0,0,1,5.124,0c.437.479.632.674,1.084.674A.917.917,0,0,0,27,23.861v-2.9a3.159,3.159,0,0,1-.486.042,3.26,3.26,0,0,1-2.562-1.326c-.437-.479-.632-.674-1.085-.674s-.646.194-1.082.673a3.136,3.136,0,0,1-5.123,0c-.437-.479-.632-.673-1.083-.673s-.646.194-1.082.673A3.252,3.252,0,0,1,11.937,21a3.257,3.257,0,0,1-2.562-1.326C8.938,19.194,8.743,19,8.291,19s-.646.194-1.083.673A3.255,3.255,0,0,1,4.646,21a3.258,3.258,0,0,1-2.562-1.326C1.647,19.194,1.452,19,1,19a1,1,0,0,1,0-2,3.258,3.258,0,0,1,2.562,1.326C4,18.806,4.194,19,4.646,19s.646-.194,1.083-.673A3.255,3.255,0,0,1,8.291,17a3.257,3.257,0,0,1,2.563,1.327c.437.479.632.673,1.083.673s.645-.194,1.081-.673a3.135,3.135,0,0,1,5.122,0c.437.479.632.674,1.084.674s.646-.194,1.082-.673a3.138,3.138,0,0,1,5.124,0c.437.479.632.674,1.084.674A.917.917,0,0,0,27,18.861v-2.9a3.159,3.159,0,0,1-.486.042,3.26,3.26,0,0,1-2.562-1.326c-.437-.479-.632-.674-1.085-.674s-.646.194-1.082.673a3.136,3.136,0,0,1-5.123,0c-.437-.479-.632-.673-1.083-.673s-.646.194-1.082.673A3.252,3.252,0,0,1,11.937,16a3.257,3.257,0,0,1-2.562-1.326C8.938,14.194,8.743,14,8.291,14s-.646.194-1.083.673A3.255,3.255,0,0,1,4.646,16a3.258,3.258,0,0,1-2.562-1.326C1.647,14.194,1.452,14,1,14a1,1,0,0,1,0-2,3.258,3.258,0,0,1,2.562,1.326C4,13.806,4.194,14,4.646,14s.646-.194,1.083-.673A3.255,3.255,0,0,1,8.291,12a3.257,3.257,0,0,1,2.563,1.327c.437.479.632.673,1.083.673s.645-.194,1.081-.673a3.135,3.135,0,0,1,5.122,0c.437.479.632.674,1.084.674s.646-.194,1.082-.673a3.138,3.138,0,0,1,5.124,0c.437.479.632.674,1.084.674A.917.917,0,0,0,27,13.861V1a1,1,0,0,1,1-1h8a1,1,0,0,1,1,1V32.671l13.1,17.8,1.324.618A1,1,0,0,1,51.906,52.423ZM17.683,48.711,27,44.363V36.047ZM34.864,46H30.781l-.5,2h2.2a.983.983,0,0,1,.322-.9,1,1,0,0,1,1.409.108l1.241,1.437ZM32,52a1,1,0,0,0-1,1V63a1,1,0,0,0,2,0V53A1,1,0,0,0,32,52Zm-3,0a1,1,0,0,0-1,1v4a1,1,0,0,1-2,0,1,1,0,0,0-2,0,3,3,0,0,0,6,0V53A1,1,0,0,0,29,52Zm10,4a1,1,0,0,0-1,1,1,1,0,0,1-2,0V53a1,1,0,0,0-2,0v4a3,3,0,0,0,6,0A1,1,0,0,0,39,56Z"/></g></svg>