<?xml version="1.0" ?><svg viewBox="0 0 64 64" xmlns="http://www.w3.org/2000/svg"><g id="Flat"><g data-name="Stroke copy 2" id="Stroke_copy_2"><g><g><rect height="18" style="fill: #fcbc04" transform="translate(-17.397 42) rotate(-45)" width="6" x="39" y="33"/><path d="M42.977,38.735a3.982,3.982,0,0,1-5.136.27,19.871,19.871,0,0,0,1.472-3.935l-1.556-1.555-4.242,4.242L46.243,50.485l4.242-4.242Z" style="fill: #e59730"/><circle cx="23" cy="23" r="20" style="fill: #f9e109"/><path d="M29,36A19.978,19.978,0,0,1,11.225,6.859a19.987,19.987,0,1,0,29.55,25.282A19.883,19.883,0,0,1,29,36Z" style="fill: #fcbc04"/><circle cx="23" cy="23" r="16" style="fill: #84d2f4"/><rect height="22" rx="4" style="fill: #84d2f4" transform="translate(-20.974 50.636) rotate(-45)" width="12" x="44.636" y="39.636"/><path d="M23,7A16,16,0,1,0,39,23,16,16,0,0,0,23,7ZM33.141,33.141,12.859,12.859A15.973,15.973,0,0,1,33.141,33.141Z" style="fill: #57b7eb"/><path d="M29,36A20,20,0,0,1,9,16c0-.272.03-.537.041-.807A15.985,15.985,0,0,0,32.8,35.629,20.083,20.083,0,0,1,29,36Z" style="fill: #4891d3"/><path d="M59.414,52.414a6,6,0,0,1-8.485,0l-8.485-8.485a4.034,4.034,0,0,1-.3-.362l-.7.7a4,4,0,0,0,0,5.657l9.9,9.9a4,4,0,0,0,5.657,0L59.828,57a3.986,3.986,0,0,0,.3-5.3Z" style="fill: #57b7eb"/><rect height="4" style="fill: #fcbc04" transform="translate(-21.853 52.757) rotate(-45)" width="12" x="46.757" y="50.757"/><path d="M50.929,52.414l-.328-.328-3.5,3.5,2.828,2.828,4.33-4.33A5.947,5.947,0,0,1,50.929,52.414Z" style="fill: #e59730"/></g><g><path d="M19,21.8a.988.988,0,0,1-.442-.1l-.444-.219a2.956,2.956,0,0,1-1.643-2.847l.032-.492a1,1,0,0,1,2,.128l-.032.493a.96.96,0,0,0,.534.925l.443.219A1,1,0,0,1,19,21.8Z" style="fill: #a1d51c"/><path d="M29.171,31.536a2.954,2.954,0,0,1-2.652-1.649l-.219-.444a1,1,0,0,1,1.793-.886l.219.443a.952.952,0,0,0,.924.534l.494-.032a1,1,0,0,1,.128,2l-.493.032C29.3,31.534,29.235,31.536,29.171,31.536Z" style="fill: #a1d51c"/><path d="M16.5,18.142l-.032.492a2.956,2.956,0,0,0,1.643,2.847l.444.219a.988.988,0,0,0,.442.1,1,1,0,0,0,.444-1.9L19,19.688a.96.96,0,0,1-.534-.925l.018-.279-1.232-1.232A1,1,0,0,0,16.5,18.142Z" style="fill: #7ab92d"/><path d="M29.236,29.534A.952.952,0,0,1,28.312,29l-.219-.443a1,1,0,0,0-1.793.886l.219.444a2.954,2.954,0,0,0,2.652,1.649c.064,0,.129,0,.194-.006l.493-.032a.992.992,0,0,0,.892-.748l-1.234-1.234Z" style="fill: #7ab92d"/><path d="M22,36a1,1,0,0,1-.831-1.555l.274-.411a.957.957,0,0,0,0-1.068l-.274-.411a1,1,0,0,1,1.664-1.11l.274.412a2.952,2.952,0,0,1,0,3.286l-.274.412A1,1,0,0,1,22,36Z" style="fill: #7ab92d"/><path d="M22,21a1,1,0,0,1-.833-.445l-.274-.412a2.952,2.952,0,0,1,0-3.286l.274-.412a1,1,0,0,1,1.664,1.11l-.274.411a.957.957,0,0,0,0,1.068l.274.411A1,1,0,0,1,22,21Z" style="fill: #a1d51c"/><path d="M31,27a1,1,0,0,1-.554-.168l-.411-.274a.961.961,0,0,0-1.068,0l-.411.274a1,1,0,0,1-1.11-1.664l.412-.274a2.956,2.956,0,0,1,3.286,0l.412.274A1,1,0,0,1,31,27Z" style="fill: #a1d51c"/><path d="M16,27a1,1,0,0,1-.446-.105l-.735-.368a.962.962,0,0,0-1.111.18,1,1,0,0,1-1.414-1.414,2.958,2.958,0,0,1,3.419-.555l.735.367A1,1,0,0,1,16,27Z" style="fill: #7ab92d"/><path d="M26.5,34.794c-.022,0-.043,0-.065,0A1,1,0,0,1,25.5,33.73l.032-.493A.96.96,0,0,0,25,32.312l-.443-.219a1,1,0,0,1,.886-1.793l.444.219a2.956,2.956,0,0,1,1.643,2.847l-.032.492A1,1,0,0,1,26.5,34.794Z" style="fill: #7ab92d"/><path d="M27.2,24a1,1,0,0,1-.895-1.443l.219-.444a2.955,2.955,0,0,1,2.847-1.643l.492.032a1,1,0,1,1-.128,2l-.493-.032a.954.954,0,0,0-.925.534l-.219.443A1,1,0,0,1,27.2,24Z" style="fill: #a1d51c"/><path d="M14.206,31.5a1,1,0,0,1-.966-1.259,2.956,2.956,0,0,1,2.684-2.19l.82-.049a.988.988,0,0,1,1.058.938A1,1,0,0,1,16.864,30l-.821.049a.962.962,0,0,0-.872.712A1,1,0,0,1,14.206,31.5Z" style="fill: #7ab92d"/><path d="M16.805,24a1,1,0,0,1-.9-.557L15.688,23a.959.959,0,0,0-.924-.534l-.494.032a1,1,0,1,1-.128-2l.493-.032a2.96,2.96,0,0,1,2.846,1.643l.219.444A1,1,0,0,1,16.805,24Z" style="fill: #7ab92d"/><path d="M17.5,34.794a1,1,0,0,1-1-.936l-.032-.493a2.956,2.956,0,0,1,1.643-2.846l.444-.219a1,1,0,0,1,.886,1.793L19,32.312a.959.959,0,0,0-.534.924l.032.494a1,1,0,0,1-.934,1.062C17.542,34.794,17.521,34.794,17.5,34.794Z" style="fill: #7ab92d"/><path d="M25,21.8l-.061,0A1,1,0,0,1,24,20.744l.049-.821a2.956,2.956,0,0,1,2.19-2.683,1,1,0,1,1,.518,1.931.962.962,0,0,0-.712.872L26,20.864A1,1,0,0,1,25,21.8Z" style="fill: #a1d51c"/><circle cx="13" cy="17" r="1" style="fill: #7ab92d"/><circle cx="32" cy="16" r="1" style="fill: #7ab92d"/><g><path d="M35.189,19.109a1,1,0,1,0-1.812.845,4.832,4.832,0,0,1-.234,4.532,1,1,0,1,0,1.714,1.028A6.828,6.828,0,0,0,35.189,19.109Z" style="fill: #a1d51c"/><path d="M24.99,11.1a2.894,2.894,0,0,0-2.345.838.913.913,0,0,1-1.29,0,1,1,0,1,0-1.414,1.414,2.914,2.914,0,0,0,4.118,0,.911.911,0,0,1,1.4.14,1,1,0,1,0,1.664-1.11A2.9,2.9,0,0,0,24.99,11.1Z" style="fill: #a1d51c"/></g><circle cx="22" cy="26" r="6" style="fill: #c4f236"/><path d="M27.741,27.741l-7.482-7.482a6,6,0,1,0,7.482,7.482Z" style="fill: #a1d51c"/><path d="M25,29a5.993,5.993,0,0,1-5.466-8.466,6,6,0,1,0,7.932,7.932A5.974,5.974,0,0,1,25,29Z" style="fill: #7ab92d"/><path d="M23,29a4,4,0,0,1-4-4,1,1,0,0,1,2,0,2,2,0,0,0,2,2,1,1,0,0,1,0,2Z" style="fill: #5ba006"/><circle cx="24" cy="25" r="1" style="fill: #5ba006"/><path d="M21.445,35.832a1,1,0,0,0,1.387-.277l.274-.412.014-.025a19.669,19.669,0,0,1-1.932-.7l-.02.03A1,1,0,0,0,21.445,35.832Z" style="fill: #5ba006"/><path d="M13.947,31.466a1,1,0,0,0,1.224-.707.916.916,0,0,1,.106-.236,20.213,20.213,0,0,1-1.4-1.464,2.942,2.942,0,0,0-.633,1.182A1,1,0,0,0,13.947,31.466Z" style="fill: #5ba006"/><path d="M16.5,33.858a1,1,0,0,0,1,.936c.022,0,.043,0,.065,0A1,1,0,0,0,18.5,33.73l-.032-.494a.948.948,0,0,1,.021-.245,20.147,20.147,0,0,1-1.69-1.17,2.956,2.956,0,0,0-.327,1.544Z" style="fill: #5ba006"/><path d="M35.189,19.109a1,1,0,1,0-1.812.845,4.832,4.832,0,0,1,.068,3.928,15.836,15.836,0,0,1,.414,2.1A.961.961,0,0,0,34,26a1,1,0,0,0,.858-.486A6.828,6.828,0,0,0,35.189,19.109Z" style="fill: #7ab92d"/><path d="M24.792,13.093a.9.9,0,0,1,.669.4,1,1,0,1,0,1.664-1.11,2.911,2.911,0,0,0-4.48-.444.913.913,0,0,1-1.29,0,.921.921,0,0,0-1.527.171A15.945,15.945,0,0,1,24.2,13.247.916.916,0,0,1,24.792,13.093Z" style="fill: #7ab92d"/></g><rect height="4" style="fill: #84d2f4" width="12" x="49" y="4"/><rect height="4" style="fill: #84d2f4" width="6" x="55" y="12"/><circle cx="11" cy="53" r="8" style="fill: #c4f236"/><path d="M18.58,55.56A8,8,0,1,1,6.42,46.44a8,8,0,0,0,12.16,9.12Z" style="fill: #a1d51c"/><path d="M11,61a8,8,0,0,0,8-8H11Z" style="fill: #fcbc04"/><path d="M18.58,55.56A8.01,8.01,0,0,1,11,61V56.42a8.021,8.021,0,0,0,7.58-.86Z" style="fill: #e59730"/><path d="M53,6a2,2,0,0,1-2-2H49V8H61V6Z" style="fill: #57b7eb"/><path d="M60,14a2.99,2.99,0,0,1-2.816-2H55v4h6V14Z" style="fill: #57b7eb"/><path d="M60,21H56a1,1,0,0,1,0-2h4a1,1,0,0,1,0,2Z" style="fill: #7ab92d"/><path d="M60,25H50a1,1,0,0,1,0-2H60a1,1,0,0,1,0,2Z" style="fill: #7ab92d"/><path d="M60,30H34a1,1,0,0,1,0-2H60a1,1,0,0,1,0,2Z" style="fill: #f8664f"/><path d="M11,49a1,1,0,0,1-1-1V30a1,1,0,0,1,2,0V48A1,1,0,0,1,11,49Z" style="fill: #f8664f"/><path d="M30,50H23a1,1,0,0,1,0-2h7a1,1,0,0,1,0,2Z" style="fill: #fcbc04"/><path d="M28,54H23a1,1,0,0,1,0-2h5a1,1,0,0,1,0,2Z" style="fill: #fcbc04"/><path d="M26,58H23a1,1,0,0,1,0-2h3a1,1,0,0,1,0,2Z" style="fill: #c4f236"/></g></g></g></svg>